<?xml version="1.0" encoding="UTF-8" standalone="no"?>
<svg width="512px" height="512px" viewBox="0 0 512 512" version="1.1" xmlns="http://www.w3.org/2000/svg" xmlns:xlink="http://www.w3.org/1999/xlink" xmlns:sketch="http://www.bohemiancoding.com/sketch/ns">
    <!-- Generator: Sketch 3.3.3 (12081) - http://www.bohemiancoding.com/sketch -->
    <title>aboutLogo512</title>
    <desc>Created with Sketch.</desc>
    <defs></defs>
    <g id="Page-2" stroke="none" stroke-width="1" fill="none" fill-rule="evenodd" sketch:type="MSPage">
        <g id="aboutLogo512" sketch:type="MSLayerGroup">
            <path d="M222.908331,498.097935 L13.9020654,289.091669 C-4.63402181,270.555581 -4.63402181,241.444419 13.9020654,222.908331 L222.908331,13.9020654 C241.444419,-4.63402181 270.555581,-4.63402181 289.091669,13.9020654 L498.097935,222.908331 C516.634022,241.444419 516.634022,270.555581 498.097935,289.091669 L289.091669,498.097935 C270.555581,516.634022 240.375029,516.634022 222.908331,498.097935 L222.908331,498.097935 Z" id="Shape-Copy-8" fill="#9B59B6" sketch:type="MSShapeGroup"></path>
            <g id="statusIcon-Copy-8" transform="translate(77.150685, 77.150685)" fill="#FFFFFF" sketch:type="MSShapeGroup">
                <path d="M178.849315,357.69863 C277.625064,357.69863 357.69863,277.625064 357.69863,178.849315 C357.69863,80.0735658 277.625064,0 178.849315,0 C80.0735658,0 0,80.0735658 0,178.849315 C0,277.625064 80.0735658,357.69863 178.849315,357.69863 Z M210.673339,20.7592192 C201.568369,19.079725 181.828212,17.0932176 181.828212,17.0932176 C181.828212,17.0932176 128.547946,67.0684958 93.0182021,108.757125 C57.4884578,150.445753 15.0053261,184.867874 15.0053261,184.867874 C15.0053261,184.867874 10.6058161,222.426283 27.6290691,247.986589 L294.768483,128.279854 C294.768483,128.279854 273.863015,145.315066 262.684933,162.082189 C256.288969,171.676134 220.568163,217.562884 206.794522,234.739723 C196.496278,247.582462 131.819237,310.4846 103.371527,323.729047 C103.371527,323.729047 145.116785,353.809059 166.490242,342.664661 C187.863698,331.520263 281.309473,205.119401 294.76849,191.179746 C303.581376,182.05214 340.931508,145.315066 340.931508,145.315066 C340.931508,145.315066 346.520549,134.136984 335.342467,111.780819 C324.164385,89.4246548 318.575344,89.4246602 318.575344,89.4246602 L78.1240382,191.179746 C78.1240382,191.179746 171.822601,87.3466895 181.828212,77.2701935 C191.833822,67.1936975 235.920828,27.0710906 235.920828,27.0710906 C235.920828,27.0710906 219.599241,22.4056827 210.673339,20.7592192 Z" id="Shape-Copy-5"></path>
            </g>
        </g>
    </g>
</svg>