<?xml version="1.0" encoding="UTF-8" standalone="no"?>
<svg width="1024px" height="1024px" viewBox="0 0 1024 1024" version="1.1" xmlns="http://www.w3.org/2000/svg" xmlns:xlink="http://www.w3.org/1999/xlink" xmlns:sketch="http://www.bohemiancoding.com/sketch/ns">
    <!-- Generator: Sketch 3.4 (15588) - http://www.bohemiancoding.com/sketch -->
    <title>aboutLogo512 Copy</title>
    <desc>Created with Sketch.</desc>
    <defs></defs>
    <g id="Page-2" stroke="none" stroke-width="1" fill="none" fill-rule="evenodd" sketch:type="MSPage">
        <g id="aboutLogo512-Copy" sketch:type="MSLayerGroup" transform="translate(64.000000, 64.000000)">
            <path d="M390.08958,871.671385 L24.3286145,505.91042 C-8.10953818,473.472267 -8.10953818,422.527733 24.3286145,390.08958 L390.08958,24.3286145 C422.527733,-8.10953818 473.472267,-8.10953818 505.91042,24.3286145 L871.671385,390.08958 C904.109538,422.527733 904.109538,473.472267 871.671385,505.91042 L505.91042,871.671385 C473.472267,904.109538 420.656301,904.109538 390.08958,871.671385 L390.08958,871.671385 Z" id="Shape-Copy-8" fill="#9B59B6" sketch:type="MSShapeGroup"></path>
            <g id="statusIcon-Copy-9" transform="translate(135.013699, 135.013699)" fill="#FFFFFF" sketch:type="MSShapeGroup">
                <path d="M312.986301,625.972603 C485.843863,625.972603 625.972603,485.843863 625.972603,312.986301 C625.972603,140.12874 485.843863,0 312.986301,0 C140.12874,0 0,140.12874 0,312.986301 C0,485.843863 140.12874,625.972603 312.986301,625.972603 Z M368.678344,36.3286335 C352.744646,33.3895187 318.19937,29.9131309 318.19937,29.9131309 C318.19937,29.9131309 224.958906,117.369868 162.781854,190.324968 C100.604801,263.280069 26.2593206,323.51878 26.2593206,323.51878 C26.2593206,323.51878 18.5601781,389.245995 48.3508709,433.976531 L515.844845,224.489745 C515.844845,224.489745 479.260276,254.301365 459.698632,283.643831 C448.505696,300.433235 385.994286,380.735047 361.890413,410.794516 C343.868486,433.269309 230.683665,543.348049 180.900172,566.525832 C180.900172,566.525832 253.954373,619.165853 291.357923,599.663157 C328.761472,580.16046 492.291578,358.958952 515.844857,334.564556 C531.267409,318.591246 596.630139,254.301365 596.630139,254.301365 C596.630139,254.301365 606.410961,234.739721 586.849317,195.616434 C567.287673,156.493146 557.506851,156.493155 557.506851,156.493155 L136.717067,334.564555 C136.717067,334.564555 300.689552,152.856707 318.19937,135.222839 C335.709189,117.588971 412.861449,47.3744086 412.861449,47.3744086 C412.861449,47.3744086 384.298672,39.2099446 368.678344,36.3286335 Z" id="Shape-Copy-5"></path>
            </g>
        </g>
    </g>
</svg>