<?xml version="1.0" encoding="UTF-8" standalone="no"?>
<svg width="1024px" height="1024px" viewBox="0 0 1024 1024" version="1.1" xmlns="http://www.w3.org/2000/svg" xmlns:xlink="http://www.w3.org/1999/xlink" xmlns:sketch="http://www.bohemiancoding.com/sketch/ns">
    <!-- Generator: Sketch 3.4 (15588) - http://www.bohemiancoding.com/sketch -->
    <title>aboutLogo512 Copy</title>
    <desc>Created with Sketch.</desc>
    <defs>
        <linearGradient x1="50%" y1="0%" x2="50%" y2="100%" id="linearGradient-1">
            <stop stop-color="#FFFFFF" offset="0%"></stop>
            <stop stop-color="#F2F2F2" offset="100%"></stop>
        </linearGradient>
        <filter x="-50%" y="-50%" width="200%" height="200%" filterUnits="objectBoundingBox" id="filter-2">
            <feOffset dx="0" dy="2" in="SourceAlpha" result="shadowOffsetOuter1"></feOffset>
            <feGaussianBlur stdDeviation="2" in="shadowOffsetOuter1" result="shadowBlurOuter1"></feGaussianBlur>
            <feColorMatrix values="0 0 0 0 0   0 0 0 0 0   0 0 0 0 0  0 0 0 0.35 0" in="shadowBlurOuter1" type="matrix" result="shadowMatrixOuter1"></feColorMatrix>
            <feMerge>
                <feMergeNode in="shadowMatrixOuter1"></feMergeNode>
                <feMergeNode in="SourceGraphic"></feMergeNode>
            </feMerge>
        </filter>
    </defs>
    <g id="Page-2" stroke="none" stroke-width="1" fill="none" fill-rule="evenodd" sketch:type="MSPage">
        <g id="aboutLogo512-Copy" sketch:type="MSLayerGroup" transform="translate(12.000000, 12.000000)">
            <path d="M435.367835,972.847528 L27.1524716,564.632165 C-9.05082386,528.42887 -9.05082386,471.57113 27.1524716,435.367835 L435.367835,27.1524716 C471.57113,-9.05082386 528.42887,-9.05082386 564.632165,27.1524716 L972.847528,435.367835 C1009.05082,471.57113 1009.05082,528.42887 972.847528,564.632165 L564.632165,972.847528 C528.42887,1009.05082 469.482479,1009.05082 435.367835,972.847528 L435.367835,972.847528 Z" id="Shape-Copy-8" stroke="url(#linearGradient-1)" stroke-width="16" fill="#9B59B6" filter="url(#filter-2)" sketch:type="MSShapeGroup"></path>
            <g id="statusIcon-Copy-9" transform="translate(150.684932, 150.684932)" fill="#FFFFFF" sketch:type="MSShapeGroup">
                <path d="M349.315068,698.630137 C542.236454,698.630137 698.630137,542.236454 698.630137,349.315068 C698.630137,156.393683 542.236454,0 349.315068,0 C156.393683,0 8.52651283e-14,156.393683 8.52651283e-14,349.315068 C8.52651283e-14,542.236454 156.393683,698.630137 349.315068,698.630137 Z M411.471366,40.5453499 C393.688221,37.2650879 355.133226,33.3851907 355.133226,33.3851907 C355.133226,33.3851907 251.070208,130.993156 181.676176,212.416259 C112.282144,293.839362 29.3072774,361.070067 29.3072774,361.070067 C29.3072774,361.070067 20.7144845,434.426334 53.9630255,484.348806 L575.719693,250.54659 C575.719693,250.54659 534.888701,283.818488 513.056509,316.566776 C500.564393,335.304949 430.797194,424.927508 403.89555,458.476022 C383.781792,483.559497 257.459447,606.415234 201.897513,632.283294 C201.897513,632.283294 283.43122,691.033319 325.176253,669.266916 C366.921286,647.500514 549.432565,400.623831 575.719707,373.397942 C592.932376,355.570587 665.881852,283.818488 665.881852,283.818488 C665.881852,283.818488 676.797948,261.986296 654.965756,218.321913 C633.133564,174.657529 622.217468,174.657539 622.217468,174.657539 L152.586012,373.397941 C152.586012,373.397941 335.591017,170.599003 355.133226,150.918347 C374.675434,131.23769 460.782867,52.8732239 460.782867,52.8732239 C460.782867,52.8732239 428.904768,43.7610989 411.471366,40.5453499 Z" id="Shape-Copy-5"></path>
            </g>
        </g>
    </g>
</svg>